<svg width="25" height="26" viewBox="0 0 25 26" fill="none" xmlns="http://www.w3.org/2000/svg">
<path d="M24.6094 13C24.6094 19.6895 19.1895 25.1094 12.5 25.1094C11.25 25.1094 10.0488 24.9189 8.91602 24.5674C9.40918 23.7617 10.1465 22.4434 10.4199 21.3936C10.5664 20.8271 11.1719 18.5127 11.1719 18.5127C11.5674 19.2646 12.7197 19.9043 13.9453 19.9043C17.5977 19.9043 20.2295 16.5449 20.2295 12.3701C20.2295 8.37109 16.9629 5.37793 12.7637 5.37793C7.53906 5.37793 4.76074 8.88379 4.76074 12.707C4.76074 14.4844 5.70801 16.6963 7.2168 17.3994C7.44629 17.5068 7.56836 17.458 7.62207 17.2383C7.66113 17.0723 7.86621 16.2471 7.95898 15.8662C7.98828 15.7441 7.97363 15.6367 7.87598 15.5195C7.38281 14.9092 6.98242 13.7959 6.98242 12.7559C6.98242 10.085 9.00391 7.50195 12.4512 7.50195C15.4248 7.50195 17.5098 9.52832 17.5098 12.4287C17.5098 15.7051 15.8545 17.9756 13.7012 17.9756C12.5146 17.9756 11.6211 16.9941 11.9092 15.7881C12.251 14.3477 12.9102 12.7949 12.9102 11.7549C12.9102 10.8271 12.4121 10.0508 11.377 10.0508C10.1611 10.0508 9.18457 11.3057 9.18457 12.9902C9.18457 14.0645 9.5459 14.7871 9.5459 14.7871C9.5459 14.7871 8.34961 19.8555 8.12988 20.8027C7.88574 21.8477 7.9834 23.3223 8.08594 24.2793C3.58398 22.5166 0.390625 18.1318 0.390625 13C0.390625 6.31055 5.81055 0.890625 12.5 0.890625C19.1895 0.890625 24.6094 6.31055 24.6094 13Z" fill="white"/>
</svg>
