<svg width="23" height="22" viewBox="0 0 23 22" fill="none" xmlns="http://www.w3.org/2000/svg">
<path d="M19.1611 3.24121C17.1152 1.19043 14.3906 0.0625 11.4951 0.0625C5.51855 0.0625 0.655273 4.92578 0.655273 10.9023C0.655273 12.8115 1.15332 14.6768 2.10059 16.3223L0.5625 21.9375L6.30957 20.4287C7.8916 21.293 9.67383 21.7471 11.4902 21.7471H11.4951C17.4668 21.7471 22.4375 16.8838 22.4375 10.9072C22.4375 8.01172 21.207 5.29199 19.1611 3.24121ZM11.4951 19.9209C9.87402 19.9209 8.28711 19.4863 6.90527 18.666L6.57812 18.4707L3.16992 19.3643L4.07812 16.0391L3.86328 15.6973C2.95996 14.2617 2.48633 12.6064 2.48633 10.9023C2.48633 5.93652 6.5293 1.89355 11.5 1.89355C13.9072 1.89355 16.168 2.83105 17.8672 4.53516C19.5664 6.23926 20.6113 8.5 20.6064 10.9072C20.6064 15.8779 16.4609 19.9209 11.4951 19.9209ZM16.4365 13.1729C16.168 13.0361 14.835 12.3818 14.5859 12.2939C14.3369 12.2012 14.1563 12.1572 13.9756 12.4307C13.7949 12.7041 13.2773 13.3096 13.1162 13.4951C12.96 13.6758 12.7988 13.7002 12.5303 13.5635C10.9385 12.7676 9.89355 12.1426 8.84375 10.3408C8.56543 9.8623 9.12207 9.89648 9.63965 8.86133C9.72754 8.68066 9.68359 8.52441 9.61523 8.3877C9.54688 8.25098 9.00488 6.91797 8.78027 6.37598C8.56055 5.84863 8.33594 5.92188 8.16992 5.91211C8.01367 5.90234 7.83301 5.90234 7.65234 5.90234C7.47168 5.90234 7.17871 5.9707 6.92969 6.23926C6.68066 6.5127 5.98242 7.16699 5.98242 8.5C5.98242 9.83301 6.9541 11.1221 7.08594 11.3027C7.22266 11.4834 8.99512 14.2178 11.7148 15.3945C13.4336 16.1367 14.1074 16.2002 14.9668 16.0732C15.4893 15.9951 16.5684 15.4189 16.793 14.7842C17.0176 14.1494 17.0176 13.6074 16.9492 13.4951C16.8857 13.373 16.7051 13.3047 16.4365 13.1729Z" fill="white"/>
</svg>
